<svg preserveAspectRatio="none" overflow="visible" style="display: block;" width="7" height="27" viewBox="0 0 7 27" fill="none" xmlns="http://www.w3.org/2000/svg">
<path id="Vector" d="M0.353811 0C0.510602 0.0072552 0.921707 0.0299435 0.93981 0.207573C1.13343 2.10665 0.945329 4.08941 1.18278 5.9971C1.09034 6.61871 2.30424 6.97071 2.53884 6.52894C3.29614 5.10293 2.83221 2.51639 2.9704 0.87333C3.00773 0.428734 3.00357 0.278096 3.24158 0.056321C3.47971 -0.0129108 3.38207 -0.012173 3.61443 0.0425485C4.04451 0.612697 3.92467 4.89603 4.11766 5.91201C4.32467 7.0017 5.44713 6.89404 5.74831 6.04284C6.07702 5.11381 5.60584 0.563446 5.91707 0.0461136C6.10728 -0.022319 6.17219 -0.00159872 6.36618 0.027545C6.70245 0.32095 6.65713 1.23437 6.69433 1.71014L6.93141 4.58934C7.0559 6.11226 7.14517 8.07602 5.9348 9.18699C4.50521 10.4991 4.10576 10.5603 4.30899 12.6371C4.57644 16.2506 4.76299 19.87 4.99684 23.4854C5.05599 24.4005 5.13597 25.4701 5.09493 26.3758C4.73497 26.8538 4.18059 27.3024 3.55119 26.7341C3.04914 26.2144 3.27475 25.2774 3.20773 24.7085C3.05968 23.4513 3.50073 22.7423 3.7533 21.6163C3.86087 21.1365 3.47934 20.3469 3.12899 19.9726C3.07784 18.4071 3.28944 11.6041 2.78075 10.7358C2.28044 9.88201 1.19202 9.54409 0.650655 8.65631C0.339615 8.14581 0.134591 7.57886 0.0476092 6.98873C-0.0975262 6.01192 0.113448 0.965741 0.353811 0Z" fill="#FDAA01"/>
</svg>
